<?xml version="1.0" encoding="utf-8"?>
<!-- Generator: Adobe Illustrator 16.2.1, SVG Export Plug-In . SVG Version: 6.00 Build 0)  -->
<!DOCTYPE svg PUBLIC "-//W3C//DTD SVG 1.1//EN" "http://www.w3.org/Graphics/SVG/1.1/DTD/svg11.dtd">
<svg version="1.1" xmlns="http://www.w3.org/2000/svg" xmlns:xlink="http://www.w3.org/1999/xlink" x="0px" y="0px" width="800px"
	 height="600px" viewBox="0 0 800 600" enable-background="new 0 0 800 600" xml:space="preserve">
<g id="Calque_1">
	<path display="none" d="M125.473,355.92c5.207,0,10.101,1.302,14.683,3.905c4.581,2.604,8.156,6.137,10.727,10.6
		c2.569,4.464,3.854,9.281,3.854,14.455c0,5.207-1.293,10.076-3.88,14.606c-2.586,4.531-6.111,8.072-10.574,10.625
		s-9.383,3.829-14.759,3.829c-7.912,0-14.666-2.814-20.262-8.444c-5.596-5.63-8.394-12.468-8.394-20.515
		c0-8.622,3.161-15.807,9.484-21.556C111.897,358.423,118.271,355.92,125.473,355.92z"/>
	<path display="none" d="M304.004,252.551c5.292,0,10.267,1.323,14.924,3.97c4.656,2.647,8.29,6.237,10.903,10.773
		c2.611,4.538,3.918,9.434,3.918,14.693c0,5.292-1.314,10.242-3.944,14.846c-2.628,4.606-6.212,8.205-10.748,10.8
		c-4.536,2.594-9.537,3.892-15.001,3.892c-8.042,0-14.907-2.86-20.595-8.583s-8.532-12.673-8.532-20.852
		c0-8.764,3.213-16.066,9.64-21.91C290.205,255.095,296.684,252.551,304.004,252.551z"/>
</g>
<g id="Calque_2">
	<g>
		<g>
			<path stroke="#020202" stroke-width="2" stroke-miterlimit="10" d="M237.719,163.815c-74.616-3.1-133.498,70.104-133.498,147.036
				c0,10.225,1.243,20.06,3.307,29.654l122.095-35.1l-5.454-6.343l8.582-0.549l1.02-4.182l1.732-14.64l3.63,12.861l2.542-4.299
				l4.267,10.902l5.793,1.351l11.484,0.579l-14.829,8.975l0.957,10.895l-3.756-2.42l3.084,14.615l-8.316-12.092l-4.14-4.939
				l-7.307,3.152l1.641-6.485l-122.941,29.122c17.156,65.722,76.631,106.399,132.114,102.997
				c63.843-3.914,124.812-56.678,130.333-133.141C375.477,236.721,328.116,167.57,237.719,163.815z"/>
		</g>
		<g>
			<path stroke="#020202" stroke-width="3" stroke-linecap="square" d="M501.574,105.014l15.085,55.985
				c-11.971,6.908-20.941,14.428-26.922,22.572c-5.977,8.139-10.449,18.297-13.433,30.462c-5.421,22.18-3.189,41.733,6.688,58.664
				c9.879,16.922,25.153,27.916,45.818,32.965c20.093,4.922,38.111,2.339,54.055-7.751c15.946-10.078,26.536-25.841,31.782-47.293
				c6.483-26.529,2.482-49.393-11.998-68.598l40.157-38.699c26.758,33.394,37.768,72.948,26.474,119.126
				c-10.154,41.557-30.403,71.081-60.773,88.59c-30.355,17.514-62.042,22.228-95.056,14.16
				c-22.867-5.589-42.528-16.455-58.995-32.598c-16.451-16.14-27.685-35.8-33.681-58.979c-5.989-23.171-5.896-47.426,0.296-72.76
				c5.732-23.451,15.547-43.375,29.451-59.767C464.427,124.699,481.446,112.674,501.574,105.014z"/>
			<line fill="none" stroke="#020202" stroke-width="0.75" x1="313.571" y1="249.354" x2="601.919" y2="181.308"/>
			<line fill="none" stroke="#020202" stroke-width="2" x1="251.98" y1="443.55" x2="577.861" y2="364.1"/>
			<line fill="none" stroke="#020202" stroke-width="0.75" x1="259.322" y1="422.607" x2="516.498" y2="363.057"/>
			<line fill="none" stroke="#020202" stroke-width="0.75" x1="229.339" y1="228.766" x2="517.683" y2="160.715"/>
			<line fill="none" stroke="#020202" stroke-width="2" x1="358.193" y1="335.209" x2="663.197" y2="259.908"/>
			<line fill="none" stroke="#020202" stroke-width="2" x1="312.396" y1="218.238" x2="643.197" y2="141.906"/>
			
				<line fill="none" stroke="#020202" stroke-width="2" stroke-linecap="round" x1="202.509" y1="168.124" x2="501.361" y2="103.525"/>
		</g>
	</g>
	<g>
	</g>
	<g>
	</g>
	<g>
	</g>
	<g>
	</g>
	<g>
	</g>
	<g>
	</g>
	<g>
	</g>
	<g>
	</g>
	<g>
	</g>
	<g>
	</g>
	<g>
	</g>
	<g>
	</g>
	<g>
	</g>
	<g>
	</g>
	<g>
	</g>
	<g>
	</g>
	<g>
	</g>
	<g>
	</g>
	<g>
	</g>
	<g>
	</g>
	<g>
	</g>
	<g>
	</g>
	<g>
	</g>
	<g>
	</g>
</g>
</svg>
