<?xml version="1.0" encoding="UTF-8" standalone="no"?>
<!-- Generator: Adobe Illustrator 16.2.1, SVG Export Plug-In . SVG Version: 6.00 Build 0)  -->

<svg
   xmlns:dc="http://purl.org/dc/elements/1.1/"
   xmlns:cc="http://creativecommons.org/ns#"
   xmlns:rdf="http://www.w3.org/1999/02/22-rdf-syntax-ns#"
   xmlns:svg="http://www.w3.org/2000/svg"
   xmlns="http://www.w3.org/2000/svg"
   xmlns:sodipodi="http://sodipodi.sourceforge.net/DTD/sodipodi-0.dtd"
   xmlns:inkscape="http://www.inkscape.org/namespaces/inkscape"
   version="1.1"
   x="0px"
   y="0px"
   width="320"
   height="568"
   viewBox="0 0 320 568"
   enable-background="new 0 0 800 600"
   xml:space="preserve"
   id="svg80"
   sodipodi:docname="poster.svg"
   inkscape:version="0.92.4 5da689c313, 2019-01-14"><metadata
   id="metadata86"><rdf:RDF><cc:Work
       rdf:about=""><dc:format>image/svg+xml</dc:format><dc:type
         rdf:resource="http://purl.org/dc/dcmitype/StillImage" /><dc:title></dc:title></cc:Work></rdf:RDF></metadata><defs
   id="defs84">
	
	
	
	
	
	
	
	
	
	
	
	
	
	
	
	
	
	
	
	
	
	
	
	
	

	
	
	
	
	
	
	
	
	
	
	
	
	
	
	
	
	
	
	
	
	
	
	
	
		
		
	
			
			
			
			
			
			
			
			
				
		
			
		</defs><sodipodi:namedview
   pagecolor="#ffffff"
   bordercolor="#666666"
   borderopacity="1"
   objecttolerance="10"
   gridtolerance="10"
   guidetolerance="10"
   inkscape:pageopacity="0"
   inkscape:pageshadow="2"
   inkscape:window-width="1600"
   inkscape:window-height="845"
   id="namedview82"
   showgrid="false"
   inkscape:snap-bbox="false"
   inkscape:snap-page="true"
   inkscape:zoom="1.1125147"
   inkscape:cx="271.38997"
   inkscape:cy="322.54059"
   inkscape:window-x="1920"
   inkscape:window-y="27"
   inkscape:window-maximized="1"
   inkscape:current-layer="svg80" />
<rect
   id="rect3847"
   width="320"
   height="568"
   x="0"
   y="0"
   style="fill:#0b0b0b;fill-opacity:1;opacity:1" /><g
   id="Calque_1"
   transform="translate(0,-32)">
	<path
   display="none"
   d="m 125.473,355.92 c 5.207,0 10.101,1.302 14.683,3.905 4.581,2.604 8.156,6.137 10.727,10.6 2.569,4.464 3.854,9.281 3.854,14.455 0,5.207 -1.293,10.076 -3.88,14.606 -2.586,4.531 -6.111,8.072 -10.574,10.625 -4.463,2.553 -9.383,3.829 -14.759,3.829 -7.912,0 -14.666,-2.814 -20.262,-8.444 -5.596,-5.63 -8.394,-12.468 -8.394,-20.515 0,-8.622 3.161,-15.807 9.484,-21.556 5.545,-5.002 11.919,-7.505 19.121,-7.505 z"
   id="path2"
   inkscape:connector-curvature="0"
   style="display:none" />
	<path
   display="none"
   d="m 304.004,252.551 c 5.292,0 10.267,1.323 14.924,3.97 4.656,2.647 8.29,6.237 10.903,10.773 2.611,4.538 3.918,9.434 3.918,14.693 0,5.292 -1.314,10.242 -3.944,14.846 -2.628,4.606 -6.212,8.205 -10.748,10.8 -4.536,2.594 -9.537,3.892 -15.001,3.892 -8.042,0 -14.907,-2.86 -20.595,-8.583 -5.688,-5.723 -8.532,-12.673 -8.532,-20.852 0,-8.764 3.213,-16.066 9.64,-21.91 5.636,-5.085 12.115,-7.629 19.435,-7.629 z"
   id="path4"
   inkscape:connector-curvature="0"
   style="display:none" />
</g>
<g
   id="g4698"
   transform="matrix(0.35939527,0,0,0.35939527,102.49676,181.93174)"><path
     stroke-miterlimit="10"
     d="m 108.03658,246.09411 c -25.596804,-1.06345 -45.796103,24.04897 -45.796103,50.44027 0,3.50766 0.426407,6.88153 1.134457,10.17272 l 41.884336,-12.04095 -1.87098,-2.17595 2.94403,-0.18833 0.34991,-1.43462 0.59416,-5.02221 1.24526,4.41193 0.87202,-1.47476 1.46378,3.7399 1.98728,0.46345 3.93955,0.19863 -5.08705,3.07884 0.3283,3.7375 -1.28848,-0.83017 1.05795,5.01363 -2.85278,-4.14812 -1.42021,-1.69431 -2.50665,1.08128 0.56294,-2.22466 -42.17455,9.99022 c 5.885316,22.54574 26.288042,36.49987 45.32132,35.33282 21.90116,-1.34269 42.8164,-19.44322 44.71036,-45.67363 1.85863,-25.74329 -14.38842,-49.46534 -45.39885,-50.75348 z"
     id="path7"
     inkscape:connector-curvature="0"
     style="fill:#e6b527;fill-opacity:1;stroke:#e6b527;stroke-width:0.68609422;stroke-miterlimit:10;stroke-opacity:1" /><path
     d="m 198.55127,225.9226 5.17487,19.20549 c -4.10662,2.36977 -7.18375,4.94948 -9.23552,7.74326 -2.05039,2.79206 -3.5845,6.27673 -4.60815,10.4499 -1.85966,7.60878 -1.09398,14.31638 2.2943,20.12452 3.38896,5.80504 8.62866,9.5765 15.71773,11.30854 6.89285,1.68848 13.07387,0.80239 18.54341,-2.65896 5.47023,-3.45722 9.1031,-8.86468 10.90273,-16.22372 2.22397,-9.1007 0.85144,-16.94413 -4.11588,-23.53235 L 247.0005,239.0637 c 9.17925,11.45572 12.9562,25.0246 9.08183,40.86583 -3.4833,14.25601 -10.42966,24.38413 -20.848,30.39054 -10.4132,6.00813 -21.28333,7.62526 -32.60869,4.85755 -7.84446,-1.91729 -14.58911,-5.64484 -20.23806,-11.18265 -5.64347,-5.53678 -9.49726,-12.28108 -11.55417,-20.23257 -2.05451,-7.94875 -2.02261,-16.26935 0.10154,-24.96011 1.96635,-8.0448 5.33335,-14.87967 10.10308,-20.5029 4.77007,-5.62391 10.60839,-9.74905 17.51324,-12.37679 z"
     id="path11"
     inkscape:connector-curvature="0"
     style="fill:#e6b527;fill-opacity:1;stroke:#e6b527;stroke-width:1.02914131;stroke-linecap:square;stroke-opacity:1" /><line
     x1="134.05739"
     y1="275.43802"
     x2="232.97433"
     y2="252.09503"
     id="line13"
     style="fill:none;stroke:#e6b527;stroke-width:0.25728533;stroke-opacity:1" /><line
     x1="112.92877"
     y1="342.0564"
     x2="224.72131"
     y2="314.8013"
     id="line15"
     style="fill:none;stroke:#e6b527;stroke-width:0.68609422;stroke-opacity:1" /><line
     x1="115.44742"
     y1="334.87195"
     x2="203.6709"
     y2="314.44351"
     id="line17"
     style="fill:none;stroke:#e6b527;stroke-width:0.25728533;stroke-opacity:1" /><line
     x1="105.16184"
     y1="268.37537"
     x2="204.07741"
     y2="245.03067"
     id="line19"
     style="fill:none;stroke:#e6b527;stroke-width:0.25728533;stroke-opacity:1" /><line
     x1="149.36484"
     y1="304.89032"
     x2="253.99557"
     y2="279.05853"
     id="line21"
     style="fill:none;stroke:#e6b527;stroke-width:0.68609422;stroke-opacity:1" /><line
     x1="133.65431"
     y1="264.76376"
     x2="247.13464"
     y2="238.57829"
     id="line23"
     style="fill:none;stroke:#e6b527;stroke-width:0.68609422;stroke-opacity:1" /><line
     x1="95.957893"
     y1="247.5723"
     x2="198.4782"
     y2="225.4118"
     id="line25"
     style="fill:none;stroke:#e6b527;stroke-width:0.68609422;stroke-linecap:round;stroke-opacity:1" /></g>
</svg>